<?xml version="1.0" encoding="UTF-8" standalone="no"?>
<!DOCTYPE svg PUBLIC "-//W3C//DTD SVG 20010904//EN" "http://www.w3.org/TR/2001/REC-SVG-20010904/DTD/svg10.dtd">
<svg xmlns="http://www.w3.org/2000/svg" width="352" height="511" xmlns:xlink="http://www.w3.org/1999/xlink"><source><![CDATA[
Tom->Julia: 100 $
Note left of Tom: bot's status\nTom's balance: 100\nJulia's balance: 0
Julia->Tom: 75 $
Note left of Tom: bot's status\nTom's balance: 25\nJulia's balance: 0
Julia->Tom: 40 $
Note left of Tom: bot's status\nTom's balance: 0\nJulia's balance: 15]]></source><desc/><defs><marker viewBox="0 0 5 5" markerWidth="5" markerHeight="5" orient="auto" refX="5" refY="2.5" id="markerArrowBlock"><path d="M 0 0 L 5 2.5 L 0 5 z"/></marker><marker viewBox="0 0 9.6 16" markerWidth="4" markerHeight="16" orient="auto" refX="9.6" refY="8" id="markerArrowOpen"><path d="M 9.6,8 1.92,16 0,13.7 5.76,8 0,2.286 1.92,0 9.6,8 z"/></marker></defs><g class="title"/><g class="actor"><path d="M183.62499809265137,20C225.3,22.3 193.0,17.7 242.0,20.0C243.6,42.1 240.4,35.3 242.0,60.0C204.7,62.3 198.1,57.7 183.6,60.0C182.0,26.4 185.2,53.6 183.6,20.0" style="stroke-width: 2px;" stroke="#000000" fill="#ffffff"/><text x="193.62499809265137" y="46" style="font-size: 16px; font-family: danielbd;"><tspan x="193.62499809265137">Tom</tspan></text></g><g class="actor"><path d="M183.62499809265137,451.2000045776367C220.6,453.5 193.0,448.9 242.0,451.2C243.6,460.8 240.4,481.6 242.0,491.2C213.1,488.9 221.5,493.5 183.6,491.2C185.2,472.9 182.0,484.8 183.6,451.2" style="stroke-width: 2px;" stroke="#000000" fill="#ffffff"/><text x="193.62499809265137" y="477.2000045776367" style="font-size: 16px; font-family: danielbd;"><tspan x="193.62499809265137">Tom</tspan></text></g><path d="M212.8,60.0C228.5,342.8 197.2,357.3 212.8,451.2" style="stroke-width: 2px;" stroke="#000000" fill="none"/><g class="actor"><path d="M262.00833320617676,20C312.8,22.4 300.8,17.6 322.5,20.0C324.1,39.9 320.9,50.4 322.5,60.0C295.3,62.4 279.4,57.6 262.0,60.0C260.4,29.6 263.6,49.5 262.0,20.0" style="stroke-width: 2px;" stroke="#000000" fill="#ffffff"/><text x="272.00833320617676" y="47" style="font-size: 16px; font-family: danielbd;"><tspan x="272.00833320617676">Julia</tspan></text></g><g class="actor"><path d="M262.00833320617676,451.2000045776367C286.2,448.8 298.9,453.6 322.5,451.2C324.1,457.6 320.9,481.4 322.5,491.2C308.0,488.8 294.5,493.6 262.0,491.2C260.4,460.8 263.6,479.2 262.0,451.2" style="stroke-width: 2px;" stroke="#000000" fill="#ffffff"/><text x="272.00833320617676" y="478.2000045776367" style="font-size: 16px; font-family: danielbd;"><tspan x="272.00833320617676">Julia</tspan></text></g><path d="M292.2,60.0C307.9,388.6 276.6,242.3 292.2,451.2" style="stroke-width: 2px;" stroke="#000000" fill="none"/><g class="signal"><text x="225.72083377838135" y="90" style="font-size: 16px; font-family: danielbd;"><tspan x="225.72083377838135">100 $</tspan></text><path d="M212.8,96.0C231.9,99.2 273.2,92.8 292.2,96.0" style="stroke-width: 2px; marker-end: url(&quot;#markerArrowBlock&quot;);" stroke="#000000" fill="none"/></g><g class="note"><path d="M20,116C165.2,109.1 88.8,122.9 192.8,116.0C195.5,134.3 190.2,171.8 192.8,182.4C61.5,189.3 145.7,175.5 20.0,182.4C22.7,131.9 17.3,156.6 20.0,116.0" style="stroke-width: 2px;" stroke="#000000" fill="#ffffff"/><text x="25" y="136" style="font-size: 16px; font-family: danielbd;"><tspan x="25">bot's status</tspan><tspan dy="1.2em" x="25">Tom's balance: 100</tspan><tspan dy="1.2em" x="25">Julia's balance: 0</tspan></text></g><g class="signal"><text x="231.73750019073486" y="212.4000015258789" style="font-size: 16px; font-family: danielbd;"><tspan x="231.73750019073486">75 $</tspan></text><path d="M292.2,218.4C273.2,215.2 231.9,221.6 212.8,218.4" style="stroke-width: 2px; marker-end: url(&quot;#markerArrowBlock&quot;);" stroke="#000000" fill="none"/></g><g class="note"><path d="M31.083328247070312,238.4000015258789C151.1,244.9 154.0,231.9 192.8,238.4C195.5,254.3 190.2,288.9 192.8,304.8C142.2,298.3 141.1,311.3 31.1,304.8C28.4,294.2 33.7,288.9 31.1,238.4" style="stroke-width: 2px;" stroke="#000000" fill="#ffffff"/><text x="36.08332824707031" y="258.4000015258789" style="font-size: 16px; font-family: danielbd;"><tspan x="36.08332824707031">bot's status</tspan><tspan dy="1.2em" x="36.08332824707031">Tom's balance: 25</tspan><tspan dy="1.2em" x="36.08332824707031">Julia's balance: 0</tspan></text></g><g class="signal"><text x="229.72083377838135" y="336.8000030517578" style="font-size: 16px; font-family: danielbd;"><tspan x="229.72083377838135">40 $</tspan></text><path d="M292.2,344.8C232.3,348.0 268.3,341.6 212.8,344.8" style="stroke-width: 2px; marker-end: url(&quot;#markerArrowBlock&quot;);" stroke="#000000" fill="none"/></g><g class="note"><path d="M36.883331298828125,364.8000030517578C126.2,371.0 61.8,358.6 192.8,364.8C190.2,413.8 195.5,404.9 192.8,431.2C128.1,437.4 157.4,425.0 36.9,431.2C39.5,415.3 34.2,416.9 36.9,364.8" style="stroke-width: 2px;" stroke="#000000" fill="#ffffff"/><text x="41.883331298828125" y="384.8000030517578" style="font-size: 16px; font-family: danielbd;"><tspan x="41.883331298828125">bot's status</tspan><tspan dy="1.2em" x="41.883331298828125">Tom's balance: 0</tspan><tspan dy="1.2em" x="41.883331298828125">Julia's balance: 15</tspan></text></g></svg>